<svg width="256" height="256" viewBox="0 0 256 256" fill="none" xmlns="http://www.w3.org/2000/svg">
<path fill-rule="evenodd" clip-rule="evenodd" d="M32.9167 242C32.9167 242 14 242 14 223.083C14 204.167 32.9167 147.417 127.5 147.417C222.083 147.417 241 204.167 241 223.083C241 242 222.083 242 222.083 242H32.9167ZM127.5 128.5C142.551 128.5 156.986 122.521 167.628 111.878C178.271 101.236 184.25 86.801 184.25 71.75C184.25 56.699 178.271 42.2644 167.628 31.6217C156.986 20.979 142.551 15 127.5 15C112.449 15 98.0144 20.979 87.3717 31.6217C76.729 42.2644 70.75 56.699 70.75 71.75C70.75 86.801 76.729 101.236 87.3717 111.878C98.0144 122.521 112.449 128.5 127.5 128.5Z" fill="#212529"/>
</svg>
