<svg width="256" height="256" viewBox="0 0 256 256" fill="none" xmlns="http://www.w3.org/2000/svg">
<g clip-path="url(#clip0_730_231)">
<path d="M123.393 14.744C124.696 13.6871 126.323 13.1104 128 13.1104C129.678 13.1104 131.304 13.6871 132.607 14.744L241.139 102.933C242.277 103.856 243.111 105.1 243.533 106.503C243.956 107.906 243.947 109.403 243.508 110.801L202.734 239.896C202.265 241.375 201.338 242.667 200.087 243.585C198.835 244.502 197.324 244.998 195.772 245H60.2279C58.6742 244.997 57.1619 244.499 55.9102 243.579C54.6585 242.658 53.7325 241.363 53.2664 239.881L12.4919 110.816C12.0531 109.418 12.0443 107.92 12.4668 106.517C12.8892 105.114 13.7234 103.871 14.8611 102.947L123.379 14.7586L123.393 14.744Z" fill="#212529"/>
</g>
<defs>
<clipPath id="clip0_730_231">
<rect width="234" height="234" fill="white" transform="translate(11 11)"/>
</clipPath>
</defs>
</svg>
