<svg width="256" height="256" viewBox="0 0 256 256" fill="none" xmlns="http://www.w3.org/2000/svg">
<path d="M32.396 39.5C26.5447 39.5 20.933 41.8244 16.7955 45.962C12.6579 50.0995 10.3335 55.7112 10.3335 61.5625L10.3335 90.9792H98.5835C100.534 90.9792 102.405 91.754 103.784 93.1332C105.163 94.5123 105.938 96.3829 105.938 98.3333C105.938 102.055 107.114 107.806 110.438 112.424C113.483 116.66 118.631 120.396 128 120.396C137.369 120.396 142.517 116.66 145.562 112.424C148.886 107.806 150.063 102.055 150.063 98.3333C150.063 96.3829 150.837 94.5123 152.217 93.1332C153.596 91.754 155.466 90.9792 157.417 90.9792H245.667V61.5625C245.667 55.7112 243.342 50.0995 239.205 45.962C235.067 41.8244 229.456 39.5 223.604 39.5H32.396Z" fill="#212529"/>
<path d="M245.667 105.688H164.021C162.966 111.202 160.744 116.428 157.505 121.014C151.725 129.044 142.164 135.104 128 135.104C113.836 135.104 104.276 129.044 98.4952 121.014C95.2562 116.427 93.0347 111.202 91.9795 105.688H10.3335V193.937C10.3335 199.789 12.6579 205.401 16.7955 209.538C20.933 213.676 26.5447 216 32.396 216H223.604C229.456 216 235.067 213.676 239.205 209.538C243.342 205.401 245.667 199.789 245.667 193.937V105.688Z" fill="#212529"/>
</svg>
