<svg width="306" height="97" viewBox="0 0 306 97" fill="none" xmlns="http://www.w3.org/2000/svg">
<path d="M134.607 57.5948L138.94 59.9478C137.884 61.4232 136.54 62.6036 134.91 63.4889C133.294 64.3741 131.539 64.8168 129.644 64.8168C127.501 64.8168 125.544 64.2654 123.774 63.1627C122.019 62.06 120.613 60.5845 119.557 58.7363C118.516 56.8726 117.996 54.8147 117.996 52.5627C117.996 50.8543 118.299 49.2624 118.905 47.7869C119.51 46.2959 120.341 44.9913 121.397 43.8731C122.469 42.7393 123.712 41.854 125.125 41.2172C126.538 40.5805 128.045 40.2621 129.644 40.2621C131.539 40.2621 133.294 40.7047 134.91 41.59C136.54 42.4753 137.884 43.6634 138.94 45.1544L134.607 47.5073C133.954 46.7308 133.193 46.1406 132.324 45.7368C131.454 45.3175 130.561 45.1078 129.644 45.1078C128.371 45.1078 127.214 45.4572 126.173 46.1561C125.148 46.8395 124.333 47.7481 123.727 48.8818C123.137 50.0001 122.842 51.227 122.842 52.5627C122.842 53.8829 123.145 55.1098 123.75 56.2436C124.356 57.3618 125.172 58.2626 126.197 58.946C127.237 59.6294 128.386 59.9711 129.644 59.9711C130.607 59.9711 131.524 59.7536 132.394 59.3188C133.263 58.8839 134.001 58.3092 134.607 57.5948ZM154.668 64.8168C152.525 64.8168 150.568 64.2654 148.798 63.1627C147.043 62.06 145.637 60.5845 144.581 58.7363C143.54 56.8726 143.02 54.8147 143.02 52.5627C143.02 50.8543 143.323 49.2624 143.929 47.7869C144.534 46.2959 145.365 44.9913 146.421 43.8731C147.493 42.7393 148.736 41.854 150.149 41.2172C151.562 40.5805 153.069 40.2621 154.668 40.2621C156.812 40.2621 158.761 40.8134 160.516 41.9161C162.286 43.0188 163.692 44.5021 164.733 46.3658C165.789 48.2295 166.317 50.2952 166.317 52.5627C166.317 54.2556 166.014 55.8398 165.408 57.3152C164.802 58.7907 163.964 60.0953 162.892 61.2291C161.836 62.3473 160.601 63.2248 159.188 63.8616C157.79 64.4984 156.284 64.8168 154.668 64.8168ZM154.668 59.9711C155.957 59.9711 157.115 59.6294 158.14 58.946C159.165 58.2626 159.972 57.3618 160.562 56.2436C161.168 55.1098 161.471 53.8829 161.471 52.5627C161.471 51.2115 161.16 49.969 160.539 48.8353C159.933 47.7015 159.118 46.8007 158.093 46.1328C157.068 45.4495 155.926 45.1078 154.668 45.1078C153.395 45.1078 152.238 45.4495 151.197 46.1328C150.172 46.8162 149.357 47.7248 148.751 48.8585C148.161 49.9923 147.866 51.227 147.866 52.5627C147.866 53.945 148.176 55.1952 148.798 56.3135C149.419 57.4317 150.242 58.3248 151.267 58.9926C152.308 59.6449 153.441 59.9711 154.668 59.9711ZM171.489 40.9144H176.335V64.2111H171.489V40.9144ZM173.959 37.5364C173.213 37.5364 172.592 37.2956 172.095 36.8142C171.598 36.3327 171.35 35.727 171.35 34.997C171.35 34.2826 171.598 33.6846 172.095 33.2032C172.592 32.7062 173.206 32.4577 173.935 32.4577C174.65 32.4577 175.256 32.7062 175.753 33.2032C176.25 33.6846 176.498 34.2826 176.498 34.997C176.498 35.727 176.25 36.3327 175.753 36.8142C175.271 37.2956 174.673 37.5364 173.959 37.5364ZM204.558 49.604V64.2111H199.712V50.7922C199.712 49.7516 199.456 48.8042 198.943 47.95C198.446 47.0958 197.771 46.4202 196.917 45.9232C196.078 45.4106 195.13 45.1544 194.074 45.1544C193.049 45.1544 192.11 45.4106 191.255 45.9232C190.401 46.4202 189.718 47.0958 189.205 47.95C188.693 48.8042 188.437 49.7516 188.437 50.7922V64.2111H183.591V40.9144H188.437V43.3838C189.244 42.4209 190.238 41.6599 191.419 41.1008C192.599 40.5416 193.872 40.2621 195.239 40.2621C196.963 40.2621 198.532 40.6814 199.945 41.5201C201.358 42.3588 202.477 43.4848 203.3 44.8981C204.139 46.3114 204.558 47.8801 204.558 49.604ZM218.061 64.6537C216.834 64.576 215.638 64.3275 214.473 63.9082C213.308 63.4889 212.283 62.922 211.398 62.2075C210.528 61.4776 209.876 60.6234 209.441 59.6449L213.565 57.8744C213.767 58.2937 214.116 58.7053 214.613 59.1091C215.125 59.5129 215.723 59.8468 216.407 60.1108C217.09 60.3593 217.805 60.4836 218.55 60.4836C219.28 60.4836 219.956 60.3826 220.577 60.1807C221.214 59.9633 221.734 59.6371 222.138 59.2023C222.542 58.7674 222.743 58.2471 222.743 57.6414C222.743 56.958 222.511 56.43 222.045 56.0572C221.594 55.6689 221.027 55.3739 220.344 55.1719C219.661 54.97 218.977 54.7759 218.294 54.5895C216.772 54.2478 215.374 53.7819 214.1 53.1917C212.842 52.586 211.841 51.8172 211.095 50.8854C210.35 49.938 209.977 48.7809 209.977 47.4142C209.977 45.9232 210.381 44.6341 211.188 43.5469C211.996 42.4442 213.052 41.5977 214.357 41.0076C215.677 40.4174 217.082 40.1223 218.573 40.1223C220.437 40.1223 222.146 40.5183 223.699 41.3104C225.252 42.1025 226.44 43.1897 227.263 44.572L223.419 46.855C223.186 46.3891 222.837 45.9698 222.371 45.597C221.905 45.2243 221.377 44.9292 220.787 44.7117C220.196 44.4788 219.583 44.3468 218.946 44.3157C218.154 44.2846 217.416 44.3778 216.733 44.5953C216.065 44.7972 215.529 45.1233 215.125 45.5737C214.722 46.0241 214.52 46.5988 214.52 47.2977C214.52 47.981 214.76 48.4936 215.242 48.8353C215.723 49.1614 216.329 49.4254 217.059 49.6273C217.805 49.8292 218.566 50.0544 219.342 50.3029C220.724 50.7378 222.021 51.2736 223.233 51.9104C224.444 52.5317 225.423 53.3004 226.168 54.2168C226.914 55.1331 227.271 56.2514 227.24 57.5715C227.24 59.0314 226.797 60.3127 225.912 61.4155C225.042 62.5182 223.908 63.3568 222.511 63.9315C221.113 64.5062 219.63 64.7469 218.061 64.6537ZM254.06 49.604V64.2111H249.214V50.7922C249.214 49.7516 248.958 48.8042 248.445 47.95C247.948 47.0958 247.273 46.4202 246.418 45.9232C245.58 45.4106 244.632 45.1544 243.576 45.1544C242.551 45.1544 241.611 45.4106 240.757 45.9232C239.903 46.4202 239.22 47.0958 238.707 47.95C238.195 48.8042 237.938 49.7516 237.938 50.7922V64.2111H233.093V29.266H237.938V43.3838C238.746 42.4209 239.74 41.6599 240.92 41.1008C242.101 40.5416 243.374 40.2621 244.741 40.2621C246.465 40.2621 248.034 40.6814 249.447 41.5201C250.86 42.3588 251.979 43.4848 252.802 44.8981C253.64 46.3114 254.06 47.8801 254.06 49.604ZM260.574 40.9144H265.419V64.2111H260.574V40.9144ZM263.043 37.5364C262.298 37.5364 261.676 37.2956 261.179 36.8142C260.682 36.3327 260.434 35.727 260.434 34.997C260.434 34.2826 260.682 33.6846 261.179 33.2032C261.676 32.7062 262.29 32.4577 263.02 32.4577C263.734 32.4577 264.34 32.7062 264.837 33.2032C265.334 33.6846 265.582 34.2826 265.582 34.997C265.582 35.727 265.334 36.3327 264.837 36.8142C264.355 37.2956 263.758 37.5364 263.043 37.5364ZM278.844 35.626V40.9144H285.414V45.7601H278.844V64.2111H273.999V45.7601H271.226V40.9144H273.999V35.626C273.999 34.3525 274.309 33.1954 274.931 32.1548C275.552 31.0987 276.383 30.26 277.423 29.6388C278.479 29.0175 279.652 28.7069 280.941 28.7069C281.873 28.7069 282.782 28.8933 283.667 29.266C284.552 29.6388 285.344 30.2134 286.043 30.99L282.572 34.4146C282.401 34.135 282.16 33.9254 281.85 33.7856C281.555 33.6303 281.252 33.5526 280.941 33.5526C280.366 33.5526 279.869 33.7545 279.45 34.1583C279.046 34.5622 278.844 35.0514 278.844 35.626ZM304.13 45.7601H299.238L299.214 64.2111H294.369L294.392 45.7601H290.688V40.9144H294.392L294.369 33.5992H299.214L299.238 40.9144H304.13V45.7601Z" fill="white"/>
<path d="M32.4903 48.5C32.4903 54.2459 34.8088 59.7565 38.936 63.8198C43.0632 67.8831 48.6611 70.1663 54.4983 70.1673V94.5434C54.4985 95.1474 54.2647 95.7288 53.8444 96.169C53.4241 96.6092 52.8491 96.875 52.2366 96.9123C51.2599 96.9708 50.2683 97 49.2655 97C36.198 96.9985 23.6663 91.8873 14.4272 82.7908C5.18816 73.6943 -0.00147713 61.3575 3.15376e-07 48.4945C0.00147776 35.6315 5.19394 23.2959 14.4351 14.2014C23.6763 5.10696 36.2092 -0.00145401 49.2767 3.1044e-07C50.2683 3.1044e-07 51.2599 0.0292458 52.2477 0.0877368C52.8602 0.124968 53.4353 0.390776 53.8555 0.83096C54.2758 1.27114 54.5097 1.85255 54.5094 2.45662V26.8327C51.6182 26.8318 48.7551 27.3915 46.0836 28.48C43.4122 29.5684 40.9848 31.1643 38.94 33.1763C36.8952 35.1884 35.2732 37.5773 34.1665 40.2066C33.0599 42.8359 32.4903 45.654 32.4903 48.5Z" fill="white"/>
<path d="M84.8034 76.6486C85.1042 76.2209 85.4013 75.7859 85.691 75.3472C85.972 74.8993 86.1175 74.382 86.1107 73.8557V23.1403C86.117 22.6152 85.9715 22.0992 85.691 21.6524C85.4013 21.2138 85.1042 20.7787 84.8034 20.3474C83.6373 18.7023 81.461 19.7149 81.461 21.9083V75.0913C81.4573 77.2847 83.6373 78.2973 84.8034 76.6486Z" fill="white"/>
<path d="M92.3689 37.2878V59.741C92.3689 62.4608 95.1283 63.0311 95.7114 60.4429C97.4594 52.5836 97.4594 44.4451 95.7114 36.5859C95.1283 33.9721 92.3689 34.5533 92.3689 37.2878Z" fill="white"/>
<path d="M70.5462 8.83974V88.1681C70.5462 89.9156 72.0132 91.0671 73.2796 90.3104L74.1486 89.7766C74.4883 89.5355 74.7621 89.2154 74.9455 88.8448C75.1289 88.4742 75.2162 88.0646 75.1996 87.6527V9.35519C75.2162 8.94327 75.1289 8.53372 74.9455 8.16311C74.7621 7.79249 74.4883 7.47234 74.1486 7.23124C73.8626 7.04845 73.5692 6.86567 73.2796 6.69751C72.0132 5.94078 70.5462 7.09232 70.5462 8.83974Z" fill="white"/>
<path d="M59.6354 3.33784V93.6625C59.6354 95.1248 60.6976 96.2471 61.8637 96.0058L62.7401 95.8121C63.6426 95.6073 64.2925 94.6203 64.2925 93.4797V3.52062C64.2925 2.38005 63.6426 1.39301 62.7401 1.18829C62.4468 1.11884 62.1571 1.05669 61.8637 0.994543C60.6976 0.753267 59.6354 1.86825 59.6354 3.33784Z" fill="white"/>
</svg>
